<?xml version="1.0" standalone="no"?>
<!DOCTYPE svg PUBLIC "-//W3C//DTD SVG 20010904//EN"
 "http://www.w3.org/TR/2001/REC-SVG-20010904/DTD/svg10.dtd">
<svg version="1.0" xmlns="http://www.w3.org/2000/svg"
 width="2000.000000pt" height="717.000000pt" viewBox="0 0 2000.000000 717.000000"
 preserveAspectRatio="xMidYMid meet">

<g transform="translate(0.000000,717.000000) scale(0.100000,-0.100000)"
fill="#000000" stroke="none">
<path d="M6634 7155 c-33 -7 -94 -30 -135 -50 -68 -34 -104 -67 -442 -403
l-367 -367 -698 233 c-383 127 -713 232 -732 232 -28 0 -74 -26 -231 -131
-109 -72 -207 -141 -219 -154 -30 -32 -37 -95 -15 -132 10 -18 256 -208 602
-468 321 -241 582 -441 581 -446 -2 -4 -172 -194 -378 -423 -262 -290 -381
-416 -396 -416 -11 0 -193 25 -405 55 -222 32 -397 53 -414 49 -33 -7 -295
-257 -321 -306 -33 -63 -2 -137 69 -167 24 -11 235 -90 468 -176 233 -87 429
-163 435 -169 7 -6 62 -189 124 -406 62 -217 118 -405 126 -417 22 -35 71 -56
117 -50 36 5 57 22 191 156 l151 151 5 381 5 381 135 131 c122 119 318 302
591 550 54 48 101 87 105 87 5 0 209 -270 454 -599 245 -330 457 -606 472
-615 34 -21 97 -20 126 0 33 23 284 402 295 444 7 31 -18 114 -226 737 l-235
702 201 190 c249 233 499 500 550 583 49 81 67 143 74 250 11 174 -41 315
-161 433 -138 136 -318 190 -502 150z m254 -266 c66 -33 109 -77 145 -149 17
-36 22 -63 22 -130 0 -143 -7 -154 -365 -510 -168 -168 -338 -332 -377 -365
-79 -67 -103 -100 -103 -142 0 -15 106 -347 236 -736 l236 -708 -57 -86 c-31
-47 -60 -81 -64 -77 -4 5 -203 272 -441 593 -465 626 -460 621 -536 606 -33
-6 -117 -77 -514 -438 -229 -209 -523 -505 -543 -549 -15 -32 -17 -78 -17
-390 l0 -354 -30 -29 c-16 -16 -32 -27 -34 -24 -2 2 -46 153 -97 334 -74 258
-99 336 -119 357 -19 20 -120 62 -420 173 -217 81 -399 151 -405 156 -6 6 2
20 20 39 l30 30 380 -56 c417 -60 450 -63 487 -43 14 8 233 244 487 524 335
370 464 520 472 547 24 76 27 73 -593 538 -312 234 -567 428 -568 432 0 4 36
32 81 62 l81 54 701 -234 c496 -165 715 -234 746 -234 l45 0 395 394 c449 447
447 446 582 446 65 0 85 -4 137 -31z"/>
<path d="M8825 6304 c-38 -8 -112 -36 -164 -60 -79 -39 -108 -60 -180 -132
-134 -135 -191 -251 -211 -432 -12 -106 0 -282 25 -363 32 -107 94 -204 182
-288 110 -105 209 -157 549 -289 279 -108 371 -157 461 -246 113 -111 153
-214 153 -401 0 -45 -5 -106 -11 -135 -37 -174 -197 -330 -377 -367 -78 -16
-315 -14 -391 4 -144 34 -262 128 -328 261 -37 77 -38 80 -41 211 -3 116 -6
133 -20 133 -19 0 -194 -27 -231 -36 l-24 -5 6 -110 c8 -130 27 -209 72 -298
77 -153 194 -270 340 -341 132 -64 189 -74 430 -75 243 0 285 8 434 81 171 84
314 252 374 439 19 62 22 91 22 250 -1 207 -11 261 -77 387 -76 147 -215 266
-419 362 -52 24 -178 78 -280 119 -286 115 -382 170 -469 263 -100 107 -124
180 -118 362 3 122 4 130 40 204 58 122 158 209 287 248 82 26 325 28 416 4
123 -31 234 -123 290 -238 41 -82 55 -149 55 -253 l0 -75 28 6 c33 7 214 36
225 36 4 0 7 30 7 68 0 317 -192 584 -495 688 -76 26 -91 28 -285 31 -155 2
-222 -1 -275 -13z"/>
<path d="M10420 4825 l0 -1455 125 0 125 0 0 1455 0 1455 -125 0 -125 0 0
-1455z"/>
<path d="M13900 4825 l0 -1455 685 0 685 0 0 125 0 125 -555 0 -555 0 0 1330
0 1330 -130 0 -130 0 0 -1455z"/>
<path d="M15670 6115 l0 -165 145 0 145 0 0 165 0 165 -145 0 -145 0 0 -165z"/>
<path d="M18490 4825 l0 -1456 123 3 122 3 3 1453 2 1452 -125 0 -125 0 0
-1455z"/>
<path d="M17084 5470 c-40 -10 -94 -30 -121 -43 -66 -34 -162 -108 -197 -152
l-29 -37 -68 106 c-68 106 -69 106 -109 106 l-40 0 0 -1040 0 -1041 123 3 122
3 5 810 5 810 28 53 c39 75 87 124 159 163 l63 34 170 3 c156 3 175 2 230 -19
82 -30 172 -120 206 -204 l24 -60 3 -797 3 -798 119 0 120 0 0 801 c0 699 -2
809 -16 863 -55 214 -245 395 -460 441 -97 21 -252 18 -340 -5z"/>
<path d="M11145 4934 c-231 -283 -421 -518 -422 -522 -1 -4 188 -239 420 -522
l422 -515 158 -3 c86 -1 157 1 157 6 0 4 -189 235 -421 512 -232 277 -423 509
-426 516 -3 9 718 886 840 1022 l20 22 -164 0 -164 -1 -420 -515z"/>
<path d="M12020 5441 c0 -6 149 -430 332 -943 182 -513 331 -940 330 -948 -1
-8 -79 -229 -175 -490 -96 -261 -177 -485 -181 -497 -7 -23 -7 -23 112 -23
l120 0 15 43 c8 23 227 629 487 1347 259 718 489 1354 510 1413 l39 108 -126
-3 -125 -3 -269 -785 c-148 -431 -269 -800 -270 -820 0 -29 -3 -23 -19 35 -10
39 -135 408 -277 820 l-258 750 -123 3 c-77 2 -122 -1 -122 -7z"/>
<path d="M15690 4410 l0 -1041 123 3 122 3 3 1038 2 1037 -125 0 -125 0 0
-1040z"/>
<path d="M19215 4939 c-230 -281 -418 -517 -419 -525 0 -8 188 -246 418 -529
l420 -515 158 0 c87 0 158 2 158 5 0 3 -194 237 -431 521 -389 465 -430 517
-416 532 70 83 835 1001 841 1010 5 9 -30 12 -153 12 l-159 0 -417 -511z"/>
<path d="M3620 3858 c-759 -174 -1171 -312 -1423 -477 -157 -103 -227 -200
-235 -326 -6 -104 22 -171 107 -256 189 -187 498 -308 1460 -570 936 -255
1231 -350 1506 -485 202 -99 307 -190 322 -278 13 -84 -88 -207 -267 -326
-126 -83 -409 -220 -649 -315 -387 -153 -1091 -373 -1681 -525 -113 -30 -209
-57 -214 -61 -12 -10 43 -229 57 -229 21 0 512 132 807 216 162 47 435 131
606 188 902 301 1406 580 1541 853 36 73 38 82 38 172 0 87 -3 102 -32 164
-95 201 -367 369 -875 542 -247 84 -385 125 -988 289 -852 232 -1168 338
-1367 458 -69 41 -133 110 -133 141 0 68 133 169 341 259 241 103 706 238
1114 323 72 15 134 31 138 35 5 4 -1 58 -14 119 -25 129 -14 123 -159 89z"/>
<path d="M975 2790 c-167 -12 -358 -61 -480 -122 -193 -98 -352 -278 -421
-478 -83 -236 -75 -482 21 -730 126 -328 464 -815 837 -1205 169 -178 190
-177 365 13 515 558 835 1076 893 1445 35 214 -28 497 -148 674 -196 289 -590
437 -1067 403z m355 -255 c115 -19 240 -61 318 -106 85 -50 191 -161 230 -242
54 -109 74 -204 75 -342 0 -102 -4 -133 -27 -208 -85 -282 -353 -694 -715
-1102 l-104 -117 -38 44 c-227 255 -365 431 -503 638 -219 329 -306 539 -306
743 0 219 81 407 227 528 96 79 261 145 418 168 101 14 323 12 425 -4z"/>
<path d="M992 2294 c-231 -62 -388 -278 -368 -505 30 -339 372 -542 686 -407
98 42 209 161 250 268 28 70 37 207 20 281 -61 261 -336 431 -588 363z m182
-238 c97 -29 163 -110 173 -210 17 -163 -135 -295 -295 -256 -179 42 -246 266
-119 398 69 72 151 95 241 68z"/>
<path d="M8245 2118 c-37 -29 -55 -76 -54 -145 0 -79 17 -123 58 -150 l34 -23
5807 0 5807 0 34 23 c45 30 62 82 56 170 -5 74 -24 112 -68 134 -19 10 -1243
13 -5835 13 l-5811 0 -28 -22z"/>
<path d="M8740 1190 c0 -203 1 -210 20 -210 19 0 20 7 20 104 l0 104 43 21
c52 25 61 26 81 5 13 -12 16 -39 16 -125 0 -102 1 -109 20 -109 19 0 20 7 20
118 0 143 -9 162 -73 162 -23 -1 -53 -7 -67 -15 -14 -8 -28 -14 -32 -15 -5 0
-8 38 -8 85 0 78 -2 85 -20 85 -19 0 -20 -7 -20 -210z"/>
<path d="M14260 1330 l0 -70 -54 0 c-85 0 -136 -54 -136 -144 0 -55 12 -88 41
-115 26 -24 87 -28 122 -10 16 9 22 9 25 0 2 -6 12 -11 23 -11 18 0 19 10 19
210 0 203 -1 210 -20 210 -18 0 -20 -7 -20 -70z m-25 -110 c25 -10 26 -11 23
-92 -3 -83 -3 -83 -36 -99 -62 -32 -103 3 -104 89 0 57 16 88 52 101 33 13 35
13 65 1z"/>
<path d="M17857 1393 c-4 -3 -7 -98 -7 -210 l0 -204 23 3 c22 3 22 4 25 211 2
196 1 207 -16 207 -10 0 -22 -3 -25 -7z"/>
<path d="M19120 1190 c0 -203 1 -210 20 -210 19 0 20 7 20 104 l0 104 45 22
c78 38 95 13 95 -136 0 -87 1 -94 20 -94 19 0 20 7 20 113 0 139 -9 161 -67
165 -24 2 -55 -4 -72 -12 -16 -9 -32 -16 -36 -16 -3 0 -5 38 -5 85 0 78 -2 85
-20 85 -19 0 -20 -7 -20 -210z"/>
<path d="M12960 1355 c-18 -21 -5 -47 22 -43 26 3 37 36 16 49 -18 12 -24 11
-38 -6z"/>
<path d="M16460 1355 c-11 -13 -11 -19 3 -32 21 -21 49 -9 45 19 -4 28 -30 35
-48 13z"/>
<path d="M18764 1355 c-9 -23 3 -45 25 -45 23 0 35 28 20 46 -15 18 -38 18
-45 -1z"/>
<path d="M8200 1346 c0 -7 18 -90 40 -185 22 -94 40 -174 40 -176 0 -3 13 -5
29 -5 29 0 31 4 55 83 67 224 74 242 81 225 3 -9 26 -81 49 -160 42 -140 44
-143 73 -146 l29 -3 42 183 c23 101 42 187 42 191 0 5 -10 7 -22 5 -21 -3 -26
-18 -57 -161 -19 -89 -37 -153 -41 -145 -4 7 -20 56 -34 108 -62 218 -54 200
-86 200 -19 0 -31 -6 -34 -17 -3 -10 -23 -81 -46 -157 -35 -121 -50 -165 -50
-144 0 5 -47 217 -65 296 -6 24 -45 32 -45 8z"/>
<path d="M9947 1353 c-4 -3 -7 -72 -7 -153 0 -130 -2 -149 -18 -163 -10 -10
-26 -17 -35 -17 -10 0 -17 -8 -17 -20 0 -41 93 -10 110 36 6 14 10 93 10 175
0 138 -1 149 -18 149 -10 0 -22 -3 -25 -7z"/>
<path d="M12080 1171 l0 -191 68 1 c95 0 133 16 155 61 23 46 15 91 -19 123
-23 21 -23 24 -9 51 21 41 19 79 -8 110 -21 24 -32 28 -105 32 l-82 5 0 -192z
m151 128 c15 -24 10 -75 -10 -93 -13 -12 -32 -16 -58 -14 -38 3 -38 3 -41 52
-5 73 0 79 54 73 26 -2 50 -11 55 -18z m-4 -150 c33 -12 43 -26 43 -60 0 -41
-33 -63 -93 -64 l-52 0 -3 54 c-2 29 -1 60 2 67 6 17 63 18 103 3z"/>
<path d="M14580 1338 c-72 -49 -101 -130 -80 -223 22 -96 73 -135 177 -135 76
0 105 8 101 29 -3 13 -15 15 -69 13 -80 -5 -119 12 -143 62 -22 48 -21 133 4
173 32 54 62 67 135 60 52 -5 64 -3 69 10 9 24 3 26 -81 31 -70 3 -82 1 -113
-20z"/>
<path d="M17564 1347 c-2 -7 -3 -91 -2 -187 3 -173 3 -175 26 -178 21 -3 22
-1 22 82 l0 86 85 0 c84 0 85 0 85 25 0 25 -1 25 -85 25 l-85 0 0 60 0 60 90
0 c83 0 90 1 90 20 0 19 -7 20 -110 20 -81 0 -112 -3 -116 -13z"/>
<path d="M16280 1300 c0 -36 -2 -40 -25 -40 -18 0 -25 -5 -25 -20 0 -15 7 -20
25 -20 25 0 25 0 25 -98 0 -118 12 -142 68 -142 45 0 65 11 56 33 -4 13 -11
14 -31 6 -17 -6 -30 -6 -36 0 -5 5 -12 53 -15 105 l-5 96 42 0 c34 0 41 3 41
20 0 17 -7 20 -40 20 l-40 0 0 40 c0 33 -3 40 -20 40 -17 0 -20 -7 -20 -40z"/>
<path d="M9071 1234 c-70 -58 -62 -199 13 -239 43 -23 149 -18 154 7 3 16 -5
18 -58 16 -68 -2 -93 14 -105 65 l-7 27 90 0 c78 0 91 2 96 18 8 25 -10 81
-36 109 -32 34 -105 33 -147 -3z m114 -29 c14 -13 25 -33 25 -45 0 -18 -6 -20
-64 -20 -36 0 -67 4 -70 8 -8 14 18 56 44 69 34 17 37 17 65 -12z"/>
<path d="M9319 1256 c-2 -2 -3 -65 -1 -140 3 -127 4 -136 23 -136 17 0 19 8
19 94 0 102 17 141 63 148 12 2 23 11 25 21 4 22 -35 23 -66 1 -20 -14 -22
-14 -22 0 0 14 -30 23 -41 12z"/>
<path d="M9539 1245 c-75 -41 -79 -199 -7 -249 14 -10 44 -16 79 -16 68 0 90
7 82 25 -3 10 -21 14 -59 13 -44 -1 -59 3 -79 22 -14 13 -25 34 -25 47 0 22 2
23 90 23 l90 0 0 30 c0 42 -24 96 -48 109 -29 15 -92 13 -123 -4z m91 -25 c19
-10 43 -64 33 -74 -4 -3 -35 -6 -70 -6 -67 0 -75 8 -52 51 17 32 58 45 89 29z"/>
<path d="M10118 1244 c-38 -20 -58 -63 -58 -124 0 -93 45 -140 135 -140 37 0
52 6 82 34 33 30 37 39 41 93 5 71 -13 115 -58 138 -37 19 -107 19 -142 -1z
m107 -28 c71 -30 70 -162 -1 -192 -81 -34 -146 46 -113 139 8 25 24 47 39 54
32 16 34 16 75 -1z"/>
<path d="M10390 1136 c0 -100 3 -128 16 -140 20 -20 76 -20 114 -1 27 14 30
14 30 0 0 -9 9 -15 25 -15 l25 0 0 140 0 140 -25 0 -25 0 0 -105 0 -106 -42
-19 c-71 -31 -78 -20 -78 115 0 108 -1 115 -20 115 -19 0 -20 -7 -20 -124z"/>
<path d="M10679 1256 c-2 -2 -3 -65 -1 -140 3 -127 4 -136 23 -136 17 0 19 8
19 94 0 102 17 141 63 148 12 2 23 11 25 21 3 13 -3 17 -26 17 -16 0 -35 -7
-43 -16 -11 -14 -13 -14 -21 0 -8 15 -29 21 -39 12z"/>
<path d="M10860 1119 c0 -140 0 -140 23 -137 21 3 22 8 25 106 l3 103 44 20
c35 15 49 17 65 9 18 -10 20 -21 20 -125 0 -108 1 -115 20 -115 19 0 20 7 20
123 0 107 -2 126 -18 140 -23 21 -88 22 -122 2 -32 -18 -40 -18 -40 0 0 8 -9
15 -20 15 -19 0 -20 -7 -20 -141z"/>
<path d="M11198 1240 c-37 -29 -51 -71 -46 -141 4 -54 8 -66 37 -91 30 -27 38
-29 99 -26 54 2 67 6 70 20 3 15 -5 17 -50 16 -66 -2 -95 13 -106 55 l-8 32
88 3 c67 2 90 6 95 17 9 26 -7 82 -32 109 -20 21 -33 26 -73 26 -34 0 -57 -6
-74 -20z m112 -30 c11 -11 20 -31 20 -45 0 -24 -2 -25 -65 -25 -69 0 -78 8
-54 51 20 39 70 48 99 19z"/>
<path d="M11410 1253 c0 -5 23 -65 51 -134 57 -138 58 -155 13 -208 -18 -22
-23 -35 -16 -47 8 -14 13 -13 40 12 22 21 46 67 83 159 28 72 60 151 70 178
l19 47 -24 0 c-20 0 -28 -12 -56 -87 -18 -49 -37 -99 -42 -113 -9 -23 -12 -19
-38 50 -49 132 -59 150 -80 150 -11 0 -20 -3 -20 -7z"/>
<path d="M11722 1240 c-44 -41 -22 -95 53 -133 17 -8 39 -25 49 -36 18 -20 19
-23 3 -38 -13 -13 -32 -17 -72 -15 -49 2 -55 0 -55 -18 0 -18 7 -20 64 -20 75
0 116 24 116 69 0 38 -24 68 -79 96 -81 41 -76 79 11 80 40 0 53 4 53 15 0 11
-15 16 -60 18 -50 2 -64 -1 -83 -18z"/>
<path d="M12429 1245 c-75 -41 -79 -199 -7 -249 14 -10 44 -16 79 -16 68 0 90
7 82 25 -3 10 -21 14 -59 13 -44 -1 -59 3 -79 22 -14 13 -25 34 -25 47 0 22 2
23 90 23 l90 0 0 35 c0 43 -23 90 -49 105 -28 14 -91 12 -122 -5z m91 -25 c19
-10 43 -64 33 -74 -4 -3 -35 -6 -70 -6 -67 0 -75 8 -52 51 17 32 58 45 89 29z"/>
<path d="M12709 1243 c-40 -24 -59 -65 -59 -122 0 -61 20 -115 48 -130 26 -14
88 -14 114 0 11 6 22 9 24 6 9 -8 -14 -90 -28 -99 -7 -5 -41 -7 -75 -4 -57 5
-63 3 -63 -14 0 -39 145 -40 184 0 19 19 21 35 24 192 3 133 0 173 -10 179
-23 15 -131 10 -159 -8z m105 -23 c25 -9 26 -13 26 -90 0 -74 -2 -81 -25 -96
-30 -20 -69 -21 -90 -4 -25 21 -37 85 -25 131 9 31 19 44 43 54 39 17 40 17
71 5z"/>
<path d="M12960 1120 c0 -133 1 -140 20 -140 19 0 20 7 20 140 0 133 -1 140
-20 140 -19 0 -20 -7 -20 -140z"/>
<path d="M13080 1119 c0 -140 0 -140 23 -137 21 3 22 8 25 106 l3 103 44 20
c35 15 49 17 65 9 18 -10 20 -21 20 -125 0 -108 1 -115 20 -115 19 0 20 7 20
123 0 107 -2 126 -18 140 -23 21 -88 22 -122 2 -32 -18 -40 -18 -40 0 0 8 -9
15 -20 15 -19 0 -20 -7 -20 -141z"/>
<path d="M13527 1253 c-4 -3 -7 -13 -7 -21 0 -12 10 -14 49 -9 60 7 91 -11 91
-54 0 -28 -2 -29 -42 -29 -88 0 -150 -57 -127 -116 5 -16 16 -32 22 -36 20
-13 86 -9 117 7 27 14 30 14 30 0 0 -10 9 -15 26 -15 24 0 26 3 20 31 -3 17
-6 71 -6 120 0 115 -11 129 -103 129 -35 0 -67 -3 -70 -7z m133 -177 c0 -28
-5 -36 -30 -46 -64 -26 -107 -11 -96 34 7 27 43 43 99 45 24 1 27 -2 27 -33z"/>
<path d="M13787 1253 c-4 -3 -7 -66 -7 -140 l0 -133 25 0 25 0 0 106 0 105 45
20 c35 15 49 17 65 9 18 -10 20 -21 20 -126 0 -114 0 -115 23 -112 21 3 22 6
21 120 0 99 -3 121 -19 138 -22 25 -83 27 -126 5 -26 -14 -30 -14 -35 0 -6 16
-26 20 -37 8z"/>
<path d="M14855 1227 c-37 -37 -51 -87 -40 -144 4 -22 20 -50 40 -70 28 -28
40 -33 79 -33 82 0 129 39 142 118 8 52 -10 105 -47 137 -25 20 -41 25 -86 25
-49 0 -59 -4 -88 -33z m149 -27 c13 -12 21 -37 24 -73 4 -46 1 -57 -21 -82
-33 -39 -91 -39 -124 0 -26 29 -31 96 -12 139 22 47 93 55 133 16z"/>
<path d="M15140 1119 c0 -140 0 -140 23 -137 21 3 22 8 25 106 l3 103 44 20
c35 15 49 17 65 9 18 -10 20 -21 20 -125 0 -108 1 -115 20 -115 19 0 20 7 20
123 0 107 -2 126 -18 140 -23 21 -88 22 -122 2 -32 -18 -40 -18 -40 0 0 8 -9
15 -20 15 -19 0 -20 -7 -20 -141z"/>
<path d="M15440 1119 c0 -140 0 -140 23 -137 21 3 22 8 25 106 l3 103 44 20
c35 15 49 17 65 9 18 -10 20 -21 20 -126 0 -114 0 -115 23 -112 21 3 22 6 21
121 -1 98 -5 121 -19 137 -22 24 -87 26 -125 5 -32 -18 -40 -18 -40 0 0 8 -9
15 -20 15 -19 0 -20 -7 -20 -141z"/>
<path d="M15778 1237 c-67 -55 -65 -193 4 -241 24 -17 133 -22 155 -8 22 14
-3 34 -38 31 -80 -5 -119 17 -119 66 0 25 1 25 85 25 96 0 102 5 90 66 -10 56
-44 84 -102 84 -35 0 -55 -6 -75 -23z m112 -27 c11 -11 20 -31 20 -45 0 -24
-2 -25 -65 -25 -69 0 -78 8 -54 51 20 39 70 48 99 19z"/>
<path d="M16062 1244 c-34 -24 -52 -68 -52 -129 0 -66 21 -112 56 -125 14 -6
50 -10 80 -10 48 0 54 2 54 21 0 18 -5 21 -32 16 -83 -12 -135 56 -110 142 16
51 35 65 90 66 36 0 47 4 50 18 3 15 -5 17 -55 17 -37 0 -67 -6 -81 -16z"/>
<path d="M16460 1120 c0 -133 1 -140 20 -140 19 0 20 7 20 140 0 133 -1 140
-20 140 -19 0 -20 -7 -20 -140z"/>
<path d="M16613 1227 c-31 -29 -37 -41 -41 -89 -8 -100 39 -158 128 -158 75 0
125 43 131 115 5 69 -1 94 -35 129 -31 33 -38 36 -90 36 -50 0 -60 -4 -93 -33z
m127 -12 c53 -27 66 -139 20 -180 -28 -26 -85 -24 -115 5 -21 20 -25 33 -25
80 0 58 10 79 45 98 27 15 41 15 75 -3z"/>
<path d="M16900 1120 c0 -133 1 -140 20 -140 19 0 20 7 20 104 l0 104 45 21
c54 25 59 26 79 5 13 -12 16 -39 16 -125 0 -102 1 -109 20 -109 19 0 20 7 20
118 0 143 -9 162 -73 162 -23 -1 -53 -7 -67 -15 -32 -18 -40 -18 -40 0 0 8 -9
15 -20 15 -19 0 -20 -7 -20 -140z"/>
<path d="M17217 1249 c-10 -6 -22 -20 -26 -32 -14 -38 6 -70 69 -109 42 -26
60 -43 60 -58 0 -27 -36 -40 -87 -30 -35 6 -42 4 -46 -11 -7 -26 0 -29 70 -29
55 0 68 4 88 25 47 46 30 89 -50 134 -87 49 -86 87 2 83 44 -2 68 11 57 30 -7
12 -116 9 -137 -3z"/>
<path d="M18016 1239 c-76 -60 -74 -196 4 -243 35 -20 102 -21 140 -1 78 40
89 180 19 239 -40 34 -123 37 -163 5z m139 -40 c29 -29 29 -130 -1 -160 -33
-32 -90 -30 -120 5 -27 30 -33 96 -13 140 22 47 93 55 134 15z"/>
<path d="M18290 1142 c0 -143 9 -162 74 -162 23 0 51 7 62 15 25 19 34 19 34
0 0 -8 9 -15 20 -15 19 0 20 7 20 140 0 133 -1 140 -20 140 -18 0 -20 -8 -22
-101 -3 -96 -5 -103 -28 -120 -79 -56 -100 -32 -100 112 0 102 -1 109 -20 109
-19 0 -20 -7 -20 -118z"/>
<path d="M18580 1120 c0 -133 1 -140 20 -140 19 0 20 7 20 91 0 103 20 149 66
149 17 0 24 5 24 20 0 27 -37 26 -67 -2 l-23 -21 0 21 c0 15 -6 22 -20 22 -19
0 -20 -7 -20 -140z"/>
<path d="M18762 1123 c3 -135 4 -138 26 -141 22 -3 22 -3 22 137 l0 141 -25 0
-26 0 3 -137z"/>
<path d="M18895 1235 c-45 -44 -30 -79 56 -130 88 -51 71 -104 -29 -85 -32 5
-42 4 -47 -7 -9 -26 5 -33 66 -33 70 0 96 11 110 47 15 41 -5 75 -63 109 -28
16 -56 37 -62 47 -17 29 16 48 70 40 40 -5 44 -4 44 16 0 19 -5 21 -60 21 -51
0 -65 -4 -85 -25z"/>
<path d="M1590 120 l0 -120 125 0 125 0 0 120 0 120 -125 0 -125 0 0 -120z"/>
<path d="M2080 120 l0 -120 120 0 120 0 0 120 0 120 -120 0 -120 0 0 -120z"/>
</g>
</svg>
