<svg xmlns="http://www.w3.org/2000/svg" version="1.1" xmlns:xlink="http://www.w3.org/1999/xlink" xmlns:svgjs="http://svgjs.dev/svgjs" width="2000" height="717" viewBox="0 0 2000 717"><g transform="matrix(1,0,0,1,-1.2121212121212466,-0.2868881630812439)"><svg viewBox="0 0 396 142" data-background-color="#158a88" preserveAspectRatio="xMidYMid meet" height="717" width="2000" xmlns="http://www.w3.org/2000/svg" xmlns:xlink="http://www.w3.org/1999/xlink"><g id="tight-bounds" transform="matrix(1,0,0,1,0.2400000000000091,0.056817460470767855)"><svg viewBox="0 0 395.52 141.88636507905846" height="141.88636507905846" width="395.52"><g><svg viewBox="0 0 670.0164595034169 240.357504" height="141.88636507905846" width="395.52"><g transform="matrix(1,0,0,1,274.4964595034168,56.50201335774745)"><svg viewBox="0 0 395.52 127.3534772845051" height="127.3534772845051" width="395.52"><g id="textblocktransform"><svg viewBox="0 0 395.52 127.3534772845051" height="127.3534772845051" width="395.52" id="textblock"><g><svg viewBox="0 0 395.52 127.3534772845051" height="127.3534772845051" width="395.52"><g transform="matrix(1,0,0,1,0,0)"><svg width="395.52" viewBox="3 -35.5 141.32 45.51" height="127.3534772845051" data-palette-color="#ffffff"><path d="M23.19-9.16L23.19-8.11Q23.19-6.32 22.47-4.76 21.75-3.2 20.54-2.03 19.34-0.85 17.74-0.18 16.14 0.49 14.36 0.49L14.36 0.49 11.84 0.49Q10.06 0.49 8.46-0.18 6.86-0.85 5.65-2.03 4.44-3.2 3.72-4.76 3-6.32 3-8.11L3-8.11 3-9.5 6.15-10.01 6.15-8.11Q6.15-6.93 6.63-5.92 7.1-4.91 7.91-4.14 8.72-3.37 9.78-2.93 10.84-2.49 12.01-2.49L12.01-2.49 14.21-2.49Q15.38-2.49 16.43-2.93 17.48-3.37 18.29-4.14 19.09-4.91 19.57-5.92 20.04-6.93 20.04-8.11L20.04-8.11 20.04-9.16Q20.04-10.96 19.34-12.16 18.63-13.35 17.46-14.2 16.28-15.04 14.81-15.63 13.33-16.21 11.77-16.8 10.21-17.38 8.73-18.09 7.25-18.8 6.08-19.86 4.91-20.92 4.2-22.46 3.49-24 3.49-26.25L3.49-26.25 3.49-26.9Q3.49-28.69 4.16-30.25 4.83-31.81 6.01-32.98 7.18-34.16 8.75-34.83 10.33-35.5 12.11-35.5L12.11-35.5 14.36-35.5Q16.14-35.5 17.7-34.83 19.26-34.16 20.43-32.98 21.61-31.81 22.28-30.25 22.95-28.69 22.95-26.9L22.95-26.9 22.95-26 19.8-25.49 19.8-26.9Q19.8-28.08 19.36-29.09 18.92-30.1 18.16-30.86 17.41-31.62 16.39-32.06 15.38-32.5 14.21-32.5L14.21-32.5 12.26-32.5Q11.08-32.5 10.07-32.06 9.06-31.62 8.29-30.86 7.52-30.1 7.08-29.09 6.64-28.08 6.64-26.9L6.64-26.9 6.64-26.25Q6.64-24.56 7.35-23.41 8.06-22.27 9.23-21.45 10.4-20.63 11.88-20.03 13.35-19.43 14.92-18.81 16.48-18.19 17.96-17.44 19.43-16.7 20.61-15.61 21.78-14.53 22.49-12.96 23.19-11.4 23.19-9.16L23.19-9.16ZM47.17 0L43.26 0 33.05-12.5 43.26-25 47.17-25 36.72-12.5 47.17 0ZM32.47 0L29.47 0 29.47-35.01 32.47-35.01 32.47 0ZM67.87-25L55.22 10.01 52.31 10.01 56.76-2.15 48.65-25 51.66-25 58.17-6.05 58.27-4.76 58.37-6.05 64.86-25 67.87-25ZM87.91 0L71.35 0 71.35-35.01 74.5-35.01 74.5-3 87.91-3 87.91 0ZM96.16-31.01L92.67-31.01 92.67-35.01 96.16-35.01 96.16-31.01ZM95.91 0L92.91 0 92.91-25 95.91-25 95.91 0ZM119.62 0L116.61 0 116.61-18.31Q116.61-19.21 116.27-20.01 115.93-20.8 115.34-21.39 114.76-21.97 113.96-22.31 113.17-22.66 112.27-22.66L112.27-22.66 110.27-22.66Q109.36-22.66 108.57-22.31 107.78-21.97 107.19-21.39 106.6-20.8 106.26-20.01 105.92-19.21 105.92-18.31L105.92-18.31 105.92 0 102.92 0 102.92-25 103.92-25 105.55-22.46Q106.58-23.85 108.13-24.67 109.68-25.49 111.51-25.49L111.51-25.49 112.27-25.49Q113.78-25.49 115.12-24.91 116.47-24.34 117.47-23.34 118.47-22.34 119.04-21 119.62-19.65 119.62-18.14L119.62-18.14 119.62 0ZM144.32 0L140.41 0 130.21-12.5 140.41-25 144.32-25 133.87-12.5 144.32 0ZM129.62 0L126.62 0 126.62-35.01 129.62-35.01 129.62 0Z" opacity="1" transform="matrix(1,0,0,1,0,0)" fill="#ffffff" class="wordmark-text-0" data-fill-palette-color="primary" id="text-0"></path></svg></g></svg></g></svg></g></svg></g><g><svg viewBox="0 0 244.43136 240.357504" height="240.357504" width="244.43136"><g><svg xmlns="http://www.w3.org/2000/svg" xmlns:xlink="http://www.w3.org/1999/xlink" version="1.1" x="0" y="0" viewBox="2 2 60 59" style="enable-background:new 0 0 64 64;" xml:space="preserve" height="240.357504" width="244.43136" class="icon-icon-0" data-fill-palette-color="accent" id="icon-0"><path d="M62 6.536C62 4.035 59.966 2 57.465 2c-1.211 0-2.351 0.472-3.207 1.329l-5.528 5.527L37.316 5.051c-0.292-0.097-0.614-0.054-0.871 0.117l-3 2C33.175 7.348 33.01 7.648 33 7.972c-0.009 0.325 0.141 0.633 0.4 0.828l9.533 7.151-6.318 6.984-6.474-0.925c-0.317-0.043-0.627 0.06-0.849 0.283l-2 2c-0.24 0.24-0.342 0.586-0.271 0.919 0.072 0.332 0.308 0.605 0.626 0.725l7.528 2.823 1.861 6.516c0.098 0.34 0.368 0.604 0.711 0.693C37.832 35.99 37.916 36 38 36c0.262 0 0.518-0.103 0.707-0.293l2-2C40.895 33.52 41 33.265 41 33v-5.738c0.356-0.444 1.733-1.877 6.891-6.487l7.307 9.821c0.194 0.261 0.54 0.414 0.828 0.403 0.325-0.008 0.626-0.174 0.807-0.445l2-3c0.171-0.257 0.214-0.578 0.116-0.871l-3.79-11.372c2.662-2.37 4.673-4.502 5.664-5.597C61.582 8.878 62 7.796 62 6.667V6.536zM60 6.667c0 0.631-0.234 1.237-0.659 1.706-1.024 1.131-3.165 3.397-5.999 5.875-0.304 0.265-0.418 0.687-0.29 1.069l3.845 11.536-0.941 1.413-7.111-9.56c-0.168-0.225-0.422-0.37-0.701-0.398-0.276-0.029-0.557 0.062-0.767 0.248C39 26.009 39 26.403 39 27v5.586l-0.506 0.505-1.532-5.366c-0.088-0.305-0.313-0.55-0.61-0.662l-6.546-2.455 0.548-0.548 6.505 0.929c0.334 0.047 0.661-0.073 0.883-0.319l7.411-8.191c0.189-0.208 0.281-0.487 0.254-0.767-0.026-0.28-0.17-0.536-0.396-0.704l-9.28-6.961 1.417-0.944 11.536 3.845c0.359 0.121 0.756 0.026 1.023-0.242l5.965-5.964C56.151 4.264 56.788 4 57.465 4 58.862 4 60 5.138 60 6.536V6.667z" fill="#a8ffff" data-fill-palette-color="accent"></path><path d="M11 60c0.266 0 0.521-0.106 0.708-0.294C12.047 59.366 20 51.323 20 46c0-5.009-3.364-8-9-8s-9 2.991-9 8c0 5.323 7.953 13.366 8.292 13.706C10.479 59.894 10.734 60 11 60zM11 40c2.614 0 7 0.779 7 6 0 3.374-4.542 8.929-7 11.558C8.542 54.931 4 49.378 4 46 4 40.779 8.386 40 11 40z" fill="#a8ffff" data-fill-palette-color="accent"></path><path d="M15 46c0-2.206-1.794-4-4-4s-4 1.794-4 4 1.794 4 4 4S15 48.206 15 46zM9 46c0-1.103 0.897-2 2-2s2 0.897 2 2-0.897 2-2 2S9 47.103 9 46z" fill="#a8ffff" data-fill-palette-color="accent"></path><path d="M47.999 48.949c-0.196-3.822-7.709-5.836-15.663-7.97-4.922-1.32-12.358-3.314-12.336-4.966 0.005-0.384 0.666-2.432 13.203-5.034l-0.406-1.958C19.729 31.733 18.024 34.168 18 35.986c-0.041 3.052 5.224 4.62 13.817 6.924 5.935 1.592 14.062 3.771 14.184 6.141 0.062 1.214-2.078 4.618-23.246 9.979l0.49 1.938C45.442 55.347 48.134 51.592 47.999 48.949z" fill="#a8ffff" data-fill-palette-color="accent"></path><rect x="19" y="59" width="2" height="2" fill="#a8ffff" data-fill-palette-color="accent"></rect><rect x="15" y="59" width="2" height="2" fill="#a8ffff" data-fill-palette-color="accent"></rect></svg></g></svg></g></svg></g><defs></defs></svg><rect width="395.52" height="141.88636507905846" fill="none" stroke="none" visibility="hidden"></rect></g></svg></g></svg>